<svg width="483" height="106" viewBox="0 0 483 106" fill="none" xmlns="http://www.w3.org/2000/svg">
<path d="M68.8896 28.4575C83.8921 14.1157 77.6628 -7.05607 55.5088 3.7948C52.5161 5.56146 55.1732 10.1265 58.1871 8.38813C63.0878 4.97847 74.3274 4.9396 71.5537 13.5256C69.7835 20.6983 64.4906 29.0016 56.1731 26.8569C57.3992 15.3912 43.7181 2.1094 32.7012 8.98173C24.3378 15.6527 30.9274 30.3584 39.7007 33.2416V33.2345C69.4408 28.4963 88.0756 37.5381 86.906 59.0809C86.906 76.6168 67.561 99.9015 52.986 99.9015C30.984 99.1736 5.22949 55.6853 27.7368 38.2342C30.3515 36.1601 27.334 32.0791 24.5816 33.9801C17.317 39.3543 13.7837 47.5657 13.7837 59.0667C13.7837 79.7473 35.4006 105.187 52.986 105.187C85.952 103.262 113.639 39.4143 68.8896 28.4575ZM40.3155 27.8356C36.5914 25.3835 34.277 21.0763 34.0933 16.642C34.8812 9.91806 42.9832 12.2995 46.884 16.1933C49.6894 18.9634 51.1346 22.9631 50.8095 26.8639C47.2938 26.9417 43.7852 27.2491 40.3155 27.8356Z" fill="#333333"/>
<path d="M42.8314 41.8912C39.344 41.9866 40.298 46.1524 40.1814 48.4279C40.1814 49.8907 41.3686 51.0779 42.8314 51.0779C46.3188 50.9825 45.3648 46.8167 45.4814 44.5412C45.4814 43.0784 44.2942 41.8912 42.8314 41.8912Z" fill="#333333"/>
<path d="M42.2095 79.4682V83.3549C42.2236 86.8175 47.4953 86.8211 47.5095 83.3549V79.4682C47.4953 76.0055 42.2236 76.002 42.2095 79.4682Z" fill="#333333"/>
<path d="M35.3264 65.8931V62.0065C35.3122 58.5438 30.0405 58.5403 30.0264 62.0065V65.8931C30.0405 69.3593 35.3122 69.3593 35.3264 65.8931Z" fill="#333333"/>
<path d="M63.1409 41.8912C59.6535 41.9866 60.6075 46.1524 60.4909 48.4279C60.4909 49.8907 61.6781 51.0779 63.1409 51.0779C66.6283 50.9825 65.6743 46.8167 65.7909 44.5412C65.7909 43.0784 64.6037 41.8912 63.1409 41.8912Z" fill="#333333"/>
<path d="M58.4629 79.4682V83.3549C58.477 86.8175 63.7488 86.8211 63.7629 83.3549V79.4682C63.7488 76.0055 58.477 76.002 58.4629 79.4682Z" fill="#333333"/>
<path d="M75.9455 65.8931V62.0065C75.9314 58.5438 70.6596 58.5403 70.6455 62.0065V65.8931C70.6596 69.3593 75.9314 69.3593 75.9455 65.8931Z" fill="#333333"/>
<path d="M55.6359 65.8931V62.0065C55.6218 58.5438 50.3501 58.5403 50.3359 62.0065V65.8931C50.3501 69.3593 55.6218 69.3593 55.6359 65.8931Z" fill="#333333"/>
<path d="M110.4 56.8C109.667 56.6333 108.983 56.35 108.35 55.95C107.717 55.55 107.183 55 106.75 54.3L108.45 51.75C110.05 49.3833 111.483 47.7833 112.75 46.95C114.05 46.1167 115.45 45.7 116.95 45.7C118.383 45.7 119.6 46.1167 120.6 46.95C121.633 47.75 122.367 48.8667 122.8 50.3C123.567 48.8333 124.567 47.7 125.8 46.9C127.067 46.1 128.483 45.7 130.05 45.7C133.317 45.7 135.533 47.3833 136.7 50.75C137.5 49.15 138.583 47.9167 139.95 47.05C141.317 46.15 142.867 45.7 144.6 45.7C146.967 45.7 148.783 46.45 150.05 47.95C151.317 49.45 151.95 51.5667 151.95 54.3V61.25C151.95 63.0833 152.183 64.4 152.65 65.2C153.15 66 153.933 66.4 155 66.4C155.467 66.4 155.817 66.6 156.05 67C156.317 67.4 156.45 67.9333 156.45 68.6C156.45 69.1333 156.3 69.6167 156 70.05C155.733 70.4833 155.283 70.7 154.65 70.7C149.817 70.7 147.4 67.7333 147.4 61.8V55.4C147.4 53.6667 147.083 52.3333 146.45 51.4C145.817 50.4667 144.917 50 143.75 50C141.983 50 140.583 51.0167 139.55 53.05C138.55 55.05 138.05 57.8333 138.05 61.4V70C137.717 70.1 137.35 70.1833 136.95 70.25C136.55 70.3167 136.167 70.35 135.8 70.35C135 70.35 134.233 70.2333 133.5 70V56.1C133.5 54.1333 133.15 52.6333 132.45 51.6C131.783 50.5333 130.783 50 129.45 50C128.25 50 127.183 50.4833 126.25 51.45C125.35 52.3833 124.633 53.7167 124.1 55.45C123.6 57.15 123.35 59.1333 123.35 61.4V70C123.017 70.1 122.65 70.1833 122.25 70.25C121.85 70.3167 121.467 70.35 121.1 70.35C120.267 70.35 119.517 70.2333 118.85 70V54.05C118.85 51.35 118.083 50 116.55 50C116.05 50 115.483 50.2333 114.85 50.7C114.25 51.1333 113.433 52.15 112.4 53.75L110.4 56.8ZM155.022 66.4C155.722 66.4 156.472 66.1833 157.272 65.75C158.072 65.3167 158.822 64.65 159.522 63.75C160.489 62.4167 161.156 60.85 161.522 59.05C161.922 57.25 162.122 55.5 162.122 53.8V46.4C162.422 46.3 162.772 46.2167 163.172 46.15C163.572 46.0833 163.989 46.05 164.422 46.05C165.189 46.05 165.939 46.1667 166.672 46.4V57.95C166.672 63.4833 168.689 66.25 172.722 66.25C175.089 66.25 176.822 65.3 177.922 63.4C179.056 61.4667 179.622 58.8333 179.622 55.5V46.4C180.322 46.1667 181.072 46.05 181.872 46.05C182.706 46.05 183.472 46.1667 184.172 46.4V67.25C184.872 66.75 185.589 66.2667 186.322 65.8C187.089 65.3 187.739 64.9 188.272 64.6C188.939 65 189.456 65.5167 189.822 66.15C190.189 66.7833 190.422 67.5167 190.522 68.35C190.022 68.6833 189.372 69.1167 188.572 69.65C187.806 70.15 187.022 70.6667 186.222 71.2C185.422 71.7333 184.739 72.1833 184.172 72.55V84C184.172 91.8 181.322 95.7 175.622 95.7C172.989 95.7 170.922 94.9167 169.422 93.35C167.956 91.7833 167.222 89.6333 167.222 86.9C167.222 80.8 171.389 75.0833 179.722 69.75V67.4C177.822 69.6 175.289 70.7 172.122 70.7C167.889 70.7 164.972 68.9167 163.372 65.35C162.839 66.3167 162.256 67.1167 161.622 67.75C160.722 68.65 159.672 69.3667 158.472 69.9C157.306 70.4333 156.039 70.7 154.672 70.7C154.206 70.7 153.856 70.4667 153.622 70C153.356 69.5667 153.222 69.0833 153.222 68.55C153.222 67.9833 153.372 67.4833 153.672 67.05C153.939 66.6167 154.389 66.4 155.022 66.4ZM171.722 86.8C171.722 88.2333 172.056 89.35 172.722 90.15C173.389 90.9833 174.306 91.4 175.472 91.4C178.306 91.4 179.722 88.9333 179.722 84V75.05C174.389 78.8167 171.722 82.7333 171.722 86.8ZM211.857 70.15C211.057 70.1167 210.307 69.9833 209.607 69.75C208.907 69.4833 208.224 69.0667 207.557 68.5C208.59 66.3333 209.374 63.9167 209.907 61.25C210.474 58.55 210.757 55.7167 210.757 52.75C210.757 52.3167 210.74 51.8167 210.707 51.25C210.674 50.65 210.607 50.1333 210.507 49.7C210.107 49.3333 209.724 48.8167 209.357 48.15C208.99 47.45 208.69 46.7333 208.457 46C208.257 45.2667 208.157 44.6833 208.157 44.25C208.524 43.7833 209.207 43.3833 210.207 43.05C211.207 42.6833 212.14 42.5 213.007 42.5C213.34 43.1 213.64 43.7833 213.907 44.55C214.174 45.2833 214.407 46.0667 214.607 46.9C215.474 46.8333 216.59 46.6333 217.957 46.3C219.024 46.0667 219.874 45.9167 220.507 45.85C221.174 45.75 221.74 45.7 222.207 45.7C224.007 45.7 225.424 46.3833 226.457 47.75C227.49 49.0833 228.007 50.9 228.007 53.2V61.25C228.007 63.0833 228.24 64.4 228.707 65.2C229.207 66 229.99 66.4 231.057 66.4C231.524 66.4 231.874 66.6 232.107 67C232.374 67.4 232.507 67.9333 232.507 68.6C232.507 69.1333 232.357 69.6167 232.057 70.05C231.79 70.4833 231.34 70.7 230.707 70.7C225.874 70.7 223.457 67.7333 223.457 61.8V54.05C223.457 52.55 223.29 51.5 222.957 50.9C222.624 50.3 222.024 50 221.157 50C220.857 50 220.524 50.0333 220.157 50.1C219.79 50.1667 219.14 50.3 218.207 50.5C216.907 50.7667 215.89 50.95 215.157 51.05C215.19 51.65 215.207 52.25 215.207 52.85C215.207 55.7833 214.924 58.8 214.357 61.9C213.79 64.9667 212.957 67.7167 211.857 70.15ZM230.698 70.7C230.264 70.7 229.914 70.5 229.648 70.1C229.381 69.7 229.248 69.1833 229.248 68.55C229.248 67.1167 229.848 66.4 231.048 66.4C232.014 66.4 232.998 66.25 233.998 65.95C234.998 65.6167 236.164 65.0667 237.498 64.3C236.198 62.0333 235.548 59.3667 235.548 56.3C235.548 54.2333 235.931 52.4167 236.698 50.85C237.464 49.25 238.531 48 239.898 47.1C241.264 46.1667 242.814 45.7 244.548 45.7C246.014 45.7 247.314 46.05 248.448 46.75C249.581 47.4167 250.464 48.35 251.098 49.55C251.731 50.75 252.048 52.1333 252.048 53.7C252.048 55.8333 251.414 57.7833 250.148 59.55C248.914 61.3167 246.814 63.2333 243.848 65.3C244.914 66.0667 246.348 66.45 248.148 66.45C248.614 66.45 248.981 66.65 249.248 67.05C249.514 67.45 249.648 67.9833 249.648 68.65C249.648 69.2833 249.498 69.7833 249.198 70.15C248.898 70.5167 248.464 70.7 247.898 70.7C246.298 70.7 244.798 70.4333 243.398 69.9C241.998 69.3667 240.831 68.6333 239.898 67.7C236.698 69.7 233.631 70.7 230.698 70.7ZM239.898 55.9C239.898 58.5333 240.364 60.6333 241.298 62.2C243.464 60.7 245.064 59.2333 246.098 57.8C247.164 56.3667 247.698 55 247.698 53.7C247.698 52.5 247.398 51.5667 246.798 50.9C246.231 50.2 245.431 49.85 244.398 49.85C243.098 49.85 242.014 50.4333 241.148 51.6C240.314 52.7667 239.898 54.2 239.898 55.9ZM247.917 70.7C247.45 70.7 247.083 70.5 246.817 70.1C246.517 69.7 246.367 69.1833 246.367 68.55C246.367 67.8833 246.533 67.3667 246.867 67C247.2 66.6333 247.633 66.45 248.167 66.45C250.267 66.45 252.183 65.8667 253.917 64.7C255.65 63.5333 257.05 61.95 258.117 59.95C258.05 59.4167 258.017 58.8667 258.017 58.3C258.017 55.8333 258.483 53.6667 259.417 51.8C260.35 49.9 261.633 48.4167 263.267 47.35C264.933 46.25 266.833 45.7 268.967 45.7C270.567 45.7 272.017 46.0167 273.317 46.65C274.65 47.25 275.733 48.1333 276.567 49.3C276.167 50.6667 275.2 51.65 273.667 52.25C272.567 50.75 271.05 50 269.117 50C267.183 50 265.617 50.7333 264.417 52.2C263.25 53.6333 262.667 55.5833 262.667 58.05C262.667 60.5833 263.4 62.6167 264.867 64.15C266.367 65.6833 268.483 66.45 271.217 66.45C271.65 66.45 272 66.6667 272.267 67.1C272.567 67.5 272.717 68.0167 272.717 68.65C272.717 69.2833 272.55 69.7833 272.217 70.15C271.917 70.5167 271.483 70.7 270.917 70.7C268.383 70.7 266.15 70.2167 264.217 69.25C262.317 68.25 260.833 66.8667 259.767 65.1C258.367 66.9 256.65 68.2833 254.617 69.25C252.583 70.2167 250.35 70.7 247.917 70.7ZM271.064 70.7C270.564 70.7 270.18 70.5 269.914 70.1C269.614 69.7 269.464 69.1833 269.464 68.55C269.464 67.8833 269.63 67.3667 269.964 67C270.297 66.6333 270.73 66.45 271.264 66.45C273.63 66.45 275.73 65.7833 277.564 64.45C279.43 63.0833 280.897 61.2167 281.964 58.85C283.03 56.4833 283.564 53.7833 283.564 50.75V46.4C283.864 46.3 284.214 46.2167 284.614 46.15C285.014 46.0833 285.43 46.05 285.864 46.05C286.63 46.05 287.38 46.1667 288.114 46.4V60.8C288.114 62.5667 288.38 63.95 288.914 64.95C289.48 65.9167 290.414 66.4 291.714 66.4C292.28 66.4 292.664 66.6333 292.864 67.1C293.064 67.5667 293.164 68.0667 293.164 68.6C293.164 69.1333 293.014 69.6167 292.714 70.05C292.447 70.4833 291.997 70.7 291.364 70.7C287.23 70.7 284.83 68.3667 284.164 63.7C282.697 65.9 280.83 67.6167 278.564 68.85C276.33 70.0833 273.83 70.7 271.064 70.7ZM285.914 39.2C284.98 39.2 284.18 38.8667 283.514 38.2C282.847 37.5333 282.514 36.7333 282.514 35.8C282.514 34.8 282.83 33.9833 283.464 33.35C284.13 32.7167 284.947 32.4 285.914 32.4C286.914 32.4 287.73 32.7167 288.364 33.35C288.997 33.9833 289.314 34.8 289.314 35.8C289.314 36.7667 288.98 37.5833 288.314 38.25C287.68 38.8833 286.88 39.2 285.914 39.2ZM291.492 70.7C290.959 70.7 290.559 70.4667 290.292 70C290.026 69.5667 289.892 69.0833 289.892 68.55C289.892 67.9833 290.042 67.4833 290.342 67.05C290.642 66.6167 291.126 66.4 291.792 66.4C292.926 66.4 293.959 65.9 294.892 64.9C295.859 63.8667 296.726 62.55 297.492 60.95C298.292 59.35 299.009 57.65 299.642 55.85C300.176 54.3167 300.759 52.7167 301.392 51.05C302.026 49.3833 302.559 47.75 302.992 46.15C303.659 45.9833 304.442 45.9167 305.342 45.95C306.242 45.9833 306.992 46.1333 307.592 46.4L307.892 49.85C309.692 47.0833 312.092 45.7 315.092 45.7C317.559 45.7 319.509 46.5667 320.942 48.3C322.376 50 323.092 52.3667 323.092 55.4V61.25C323.092 63.0833 323.326 64.4 323.792 65.2C324.292 66 325.076 66.4 326.142 66.4C326.609 66.4 326.959 66.6 327.192 67C327.459 67.4 327.592 67.9333 327.592 68.6C327.592 69.1333 327.442 69.6167 327.142 70.05C326.876 70.4833 326.426 70.7 325.792 70.7C320.959 70.7 318.542 67.7333 318.542 61.8V55.4C318.542 51.8 317.226 50 314.592 50C313.426 50 312.359 50.45 311.392 51.35C310.426 52.25 309.659 53.45 309.092 54.95C308.559 56.4167 308.292 58.0667 308.292 59.9V88.4C307.959 88.5 307.592 88.5833 307.192 88.65C306.792 88.7167 306.409 88.75 306.042 88.75C305.242 88.75 304.476 88.6333 303.742 88.4V56.65L303.542 57.2C302.609 59.8667 301.609 62.2167 300.542 64.25C299.509 66.2833 298.276 67.8667 296.842 69C295.409 70.1333 293.626 70.7 291.492 70.7ZM325.815 70.7C325.382 70.7 325.032 70.5 324.765 70.1C324.498 69.7 324.365 69.1833 324.365 68.55C324.365 67.1167 324.965 66.4 326.165 66.4C327.132 66.4 328.115 66.25 329.115 65.95C330.115 65.6167 331.282 65.0667 332.615 64.3C331.315 62.0333 330.665 59.3667 330.665 56.3C330.665 54.2333 331.048 52.4167 331.815 50.85C332.582 49.25 333.648 48 335.015 47.1C336.382 46.1667 337.932 45.7 339.665 45.7C341.132 45.7 342.432 46.05 343.565 46.75C344.698 47.4167 345.582 48.35 346.215 49.55C346.848 50.75 347.165 52.1333 347.165 53.7C347.165 55.8333 346.532 57.7833 345.265 59.55C344.032 61.3167 341.932 63.2333 338.965 65.3C340.032 66.0667 341.465 66.45 343.265 66.45C344.232 66.45 345.198 66.3167 346.165 66.05C347.132 65.7833 348.065 65.4167 348.965 64.95C349.465 65.3167 349.832 65.8667 350.065 66.6C350.332 67.3 350.465 67.9833 350.465 68.65C349.365 69.2833 348.198 69.7833 346.965 70.15C345.732 70.5167 344.432 70.7 343.065 70.7H343.015C341.415 70.7 339.915 70.4333 338.515 69.9C337.115 69.3667 335.948 68.6333 335.015 67.7C331.815 69.7 328.748 70.7 325.815 70.7ZM335.015 55.9C335.015 58.5333 335.482 60.6333 336.415 62.2C338.582 60.7 340.182 59.2333 341.215 57.8C342.282 56.3667 342.815 55 342.815 53.7C342.815 52.5 342.515 51.5667 341.915 50.9C341.348 50.2 340.548 49.85 339.515 49.85C338.215 49.85 337.132 50.4333 336.265 51.6C335.432 52.7667 335.015 54.2 335.015 55.9ZM368.257 70.4C366.824 69.5667 365.891 68.3 365.457 66.6C366.524 65.8667 367.641 64.95 368.807 63.85C369.974 62.7167 370.991 61.6 371.857 60.5C371.391 58.1 371.157 54.85 371.157 50.75V36.85C371.157 34.0833 371.241 31.85 371.407 30.15C371.607 28.45 371.924 27.0333 372.357 25.9C372.991 24.2333 373.907 22.95 375.107 22.05C376.307 21.15 377.724 20.7 379.357 20.7C381.624 20.7 383.441 21.8167 384.807 24.05C386.174 26.25 386.857 29.2167 386.857 32.95C386.857 35.85 386.574 38.7167 386.007 41.55C385.474 44.35 384.741 47.0333 383.807 49.6C382.874 52.1667 381.807 54.5167 380.607 56.65C379.407 58.7833 378.157 60.6167 376.857 62.15C376.924 62.3167 377.007 62.4833 377.107 62.65C377.807 63.8833 378.624 64.8 379.557 65.4C380.524 65.9667 381.707 66.25 383.107 66.25C384.607 66.25 385.924 65.8333 387.057 65C388.191 64.1667 389.074 63.0167 389.707 61.55C390.341 60.05 390.657 58.3333 390.657 56.4C390.657 55.7 390.607 55 390.507 54.3C388.407 52.9667 387.024 51.7833 386.357 50.75C386.591 50.0833 386.957 49.45 387.457 48.85C387.991 48.2167 388.574 47.7167 389.207 47.35C389.841 46.95 390.441 46.75 391.007 46.75C391.774 46.75 392.474 47.1667 393.107 48C393.741 48.8 394.241 49.8833 394.607 51.25C395.007 52.5833 395.207 54.0667 395.207 55.7C395.207 58.7 394.707 61.3167 393.707 63.55C392.741 65.75 391.341 67.4667 389.507 68.7C387.707 69.9 385.574 70.5 383.107 70.5C378.674 70.5 375.491 68.8333 373.557 65.5C372.891 66.2667 372.124 67.0667 371.257 67.9C370.391 68.7333 369.391 69.5667 368.257 70.4ZM375.357 49.75C375.357 52.5833 375.441 54.9 375.607 56.7C376.907 54.7333 378.091 52.45 379.157 49.85C380.224 47.2167 381.057 44.45 381.657 41.55C382.291 38.6167 382.607 35.7333 382.607 32.9C382.607 27.5333 381.441 24.85 379.107 24.85C377.741 24.85 376.757 25.7667 376.157 27.6C375.624 29.2333 375.357 32.1167 375.357 36.25V49.75ZM413.286 70.7C411.02 70.7 408.986 70.1667 407.186 69.1C405.42 68 404.02 66.5 402.986 64.6C401.986 62.7 401.486 60.55 401.486 58.15C401.486 56.3833 401.786 54.7167 402.386 53.15C399.22 53.8833 395.82 54.25 392.186 54.25C391.686 54.25 391.286 54.05 390.986 53.65C390.686 53.2167 390.536 52.6833 390.536 52.05C390.536 50.6833 391.086 50 392.186 50C397.786 50 402.92 49.05 407.586 47.15C409.32 46.1833 411.22 45.7 413.286 45.7C415.52 45.7 417.52 46.25 419.286 47.35C421.053 48.4167 422.436 49.8833 423.436 51.75C424.47 53.6167 424.986 55.75 424.986 58.15C424.986 60.55 424.47 62.7 423.436 64.6C422.436 66.5 421.053 68 419.286 69.1C417.553 70.1667 415.553 70.7 413.286 70.7ZM413.236 66.4C415.37 66.4 417.07 65.65 418.336 64.15C419.636 62.65 420.286 60.65 420.286 58.15C420.286 56.9167 420.103 55.7833 419.736 54.75C417.736 54.6833 415.92 54.2833 414.286 53.55C412.686 52.8167 411.42 51.8167 410.486 50.55C409.153 51.1167 408.103 52.0833 407.336 53.45C406.57 54.7833 406.186 56.3833 406.186 58.25C406.186 60.6833 406.82 62.65 408.086 64.15C409.386 65.65 411.103 66.4 413.236 66.4ZM442.437 70.7C440.17 70.7 438.137 70.1667 436.337 69.1C434.57 68 433.17 66.5 432.137 64.6C431.137 62.7 430.637 60.55 430.637 58.15C430.637 56.3833 430.937 54.7167 431.537 53.15C428.37 53.8833 424.97 54.25 421.337 54.25C420.837 54.25 420.437 54.05 420.137 53.65C419.837 53.2167 419.687 52.6833 419.687 52.05C419.687 50.6833 420.237 50 421.337 50C426.937 50 432.07 49.05 436.737 47.15C438.47 46.1833 440.37 45.7 442.437 45.7C444.67 45.7 446.67 46.25 448.437 47.35C450.203 48.4167 451.587 49.8833 452.587 51.75C453.62 53.6167 454.137 55.75 454.137 58.15C454.137 60.55 453.62 62.7 452.587 64.6C451.587 66.5 450.203 68 448.437 69.1C446.703 70.1667 444.703 70.7 442.437 70.7ZM442.387 66.4C444.52 66.4 446.22 65.65 447.487 64.15C448.787 62.65 449.437 60.65 449.437 58.15C449.437 56.9167 449.253 55.7833 448.887 54.75C446.887 54.6833 445.07 54.2833 443.437 53.55C441.837 52.8167 440.57 51.8167 439.637 50.55C438.303 51.1167 437.253 52.0833 436.487 53.45C435.72 54.7833 435.337 56.3833 435.337 58.25C435.337 60.6833 435.97 62.65 437.237 64.15C438.537 65.65 440.253 66.4 442.387 66.4ZM464.337 70C464.004 70.1 463.637 70.1833 463.237 70.25C462.837 70.3167 462.454 70.35 462.087 70.35C461.32 70.35 460.537 70.2333 459.737 70V53.75C458.537 54.15 457.287 54.4667 455.987 54.7C454.654 54.9 453.454 55 452.387 55C451.22 55 450.37 54.85 449.837 54.55C449.304 54.25 449.037 53.6667 449.037 52.8C449.037 52.2 449.154 51.7667 449.387 51.5C449.62 51.2 449.887 51.05 450.187 51.05H451.537C452.87 51.05 454.22 50.9167 455.587 50.65C456.954 50.3833 458.337 49.9667 459.737 49.4V31.05C459.737 27.7167 460.437 25.15 461.837 23.35C463.27 21.55 465.337 20.6667 468.037 20.7C470.504 20.7333 472.42 21.6667 473.787 23.5C475.187 25.3333 475.887 27.7167 475.887 30.65C475.887 33.55 475.437 36.3167 474.537 38.95C473.637 41.55 472.47 43.8833 471.037 45.95C471.704 45.7833 472.404 45.7 473.137 45.7C475.304 45.7 477.037 46.35 478.337 47.65C479.637 48.95 480.287 50.6667 480.287 52.8C480.287 54.5667 479.654 56.1167 478.387 57.45C477.154 58.7833 475.487 59.7833 473.387 60.45C474.12 60.9167 474.77 61.4833 475.337 62.15L476.837 63.9C477.637 64.8667 478.37 65.5667 479.037 66C479.704 66.4 480.587 66.7167 481.687 66.95C481.92 67.5833 481.954 68.2833 481.787 69.05C481.62 69.7833 481.32 70.3333 480.887 70.7C479.787 70.7 478.754 70.45 477.787 69.95C476.854 69.4167 475.82 68.5833 474.687 67.45L472.537 65.25C471.604 64.3167 470.804 63.6167 470.137 63.15C469.504 62.65 468.754 62.3167 467.887 62.15C467.054 61.95 465.887 61.85 464.387 61.85C464.354 62.3833 464.337 62.9167 464.337 63.45V70ZM464.187 31V47.35C466.487 45.35 468.27 42.9167 469.537 40.05C470.804 37.15 471.437 34 471.437 30.6C471.437 28.7333 471.12 27.3167 470.487 26.35C469.887 25.35 469.004 24.85 467.837 24.85C465.404 24.85 464.187 26.9 464.187 31ZM472.337 49.65C470.57 49.65 469.02 50.4333 467.687 52C466.387 53.5667 465.454 55.6333 464.887 58.2C465.454 58.2667 466.104 58.3 466.837 58.3C468.57 58.3 470.12 58.0667 471.487 57.6C472.854 57.1333 473.92 56.5 474.687 55.7C475.487 54.9 475.887 54 475.887 53C475.887 52 475.554 51.2 474.887 50.6C474.254 49.9667 473.404 49.65 472.337 49.65Z" fill="#333333"/>
</svg>
