<svg width="377" height="76" viewBox="0 0 377 76" fill="none" xmlns="http://www.w3.org/2000/svg">
<path d="M4.4 36.8C3.66667 36.6333 2.98333 36.35 2.35 35.95C1.71667 35.55 1.18333 35 0.75 34.3L2.45 31.75C4.05 29.3833 5.48333 27.7833 6.75 26.95C8.05 26.1167 9.45 25.7 10.95 25.7C12.3833 25.7 13.6 26.1167 14.6 26.95C15.6333 27.75 16.3667 28.8667 16.8 30.3C17.5667 28.8333 18.5667 27.7 19.8 26.9C21.0667 26.1 22.4833 25.7 24.05 25.7C27.3167 25.7 29.5333 27.3833 30.7 30.75C31.5 29.15 32.5833 27.9167 33.95 27.05C35.3167 26.15 36.8667 25.7 38.6 25.7C40.9667 25.7 42.7833 26.45 44.05 27.95C45.3167 29.45 45.95 31.5667 45.95 34.3V41.25C45.95 43.0833 46.1833 44.4 46.65 45.2C47.15 46 47.9333 46.4 49 46.4C49.4667 46.4 49.8167 46.6 50.05 47C50.3167 47.4 50.45 47.9333 50.45 48.6C50.45 49.1333 50.3 49.6167 50 50.05C49.7333 50.4833 49.2833 50.7 48.65 50.7C43.8167 50.7 41.4 47.7333 41.4 41.8V35.4C41.4 33.6667 41.0833 32.3333 40.45 31.4C39.8167 30.4667 38.9167 30 37.75 30C35.9833 30 34.5833 31.0167 33.55 33.05C32.55 35.05 32.05 37.8333 32.05 41.4V50C31.7167 50.1 31.35 50.1833 30.95 50.25C30.55 50.3167 30.1667 50.35 29.8 50.35C29 50.35 28.2333 50.2333 27.5 50V36.1C27.5 34.1333 27.15 32.6333 26.45 31.6C25.7833 30.5333 24.7833 30 23.45 30C22.25 30 21.1833 30.4833 20.25 31.45C19.35 32.3833 18.6333 33.7167 18.1 35.45C17.6 37.15 17.35 39.1333 17.35 41.4V50C17.0167 50.1 16.65 50.1833 16.25 50.25C15.85 50.3167 15.4667 50.35 15.1 50.35C14.2667 50.35 13.5167 50.2333 12.85 50V34.05C12.85 31.35 12.0833 30 10.55 30C10.05 30 9.48333 30.2333 8.85 30.7C8.25 31.1333 7.43333 32.15 6.4 33.75L4.4 36.8ZM49.0223 46.4C49.7223 46.4 50.4723 46.1833 51.2723 45.75C52.0723 45.3167 52.8223 44.65 53.5223 43.75C54.4889 42.4167 55.1556 40.85 55.5223 39.05C55.9223 37.25 56.1223 35.5 56.1223 33.8V26.4C56.4223 26.3 56.7723 26.2167 57.1723 26.15C57.5723 26.0833 57.9889 26.05 58.4223 26.05C59.1889 26.05 59.9389 26.1667 60.6723 26.4V37.95C60.6723 43.4833 62.6889 46.25 66.7223 46.25C69.0889 46.25 70.8223 45.3 71.9223 43.4C73.0556 41.4667 73.6223 38.8333 73.6223 35.5V26.4C74.3223 26.1667 75.0723 26.05 75.8723 26.05C76.7056 26.05 77.4723 26.1667 78.1723 26.4V47.25C78.8723 46.75 79.5889 46.2667 80.3223 45.8C81.0889 45.3 81.7389 44.9 82.2723 44.6C82.9389 45 83.4556 45.5167 83.8223 46.15C84.1889 46.7833 84.4223 47.5167 84.5223 48.35C84.0223 48.6833 83.3723 49.1167 82.5723 49.65C81.8056 50.15 81.0223 50.6667 80.2223 51.2C79.4223 51.7333 78.7389 52.1833 78.1723 52.55V64C78.1723 71.8 75.3223 75.7 69.6223 75.7C66.9889 75.7 64.9223 74.9167 63.4223 73.35C61.9556 71.7833 61.2223 69.6333 61.2223 66.9C61.2223 60.8 65.3889 55.0833 73.7223 49.75V47.4C71.8223 49.6 69.2889 50.7 66.1223 50.7C61.8889 50.7 58.9723 48.9167 57.3723 45.35C56.8389 46.3167 56.2556 47.1167 55.6223 47.75C54.7223 48.65 53.6723 49.3667 52.4723 49.9C51.3056 50.4333 50.0389 50.7 48.6723 50.7C48.2056 50.7 47.8556 50.4667 47.6223 50C47.3556 49.5667 47.2223 49.0833 47.2223 48.55C47.2223 47.9833 47.3723 47.4833 47.6723 47.05C47.9389 46.6167 48.3889 46.4 49.0223 46.4ZM65.7223 66.8C65.7223 68.2333 66.0556 69.35 66.7223 70.15C67.3889 70.9833 68.3056 71.4 69.4723 71.4C72.3056 71.4 73.7223 68.9333 73.7223 64V55.05C68.3889 58.8167 65.7223 62.7333 65.7223 66.8ZM105.857 50.15C105.057 50.1167 104.307 49.9833 103.607 49.75C102.907 49.4833 102.224 49.0667 101.557 48.5C102.59 46.3333 103.374 43.9167 103.907 41.25C104.474 38.55 104.757 35.7167 104.757 32.75C104.757 32.3167 104.74 31.8167 104.707 31.25C104.674 30.65 104.607 30.1333 104.507 29.7C104.107 29.3333 103.724 28.8167 103.357 28.15C102.99 27.45 102.69 26.7333 102.457 26C102.257 25.2667 102.157 24.6833 102.157 24.25C102.524 23.7833 103.207 23.3833 104.207 23.05C105.207 22.6833 106.14 22.5 107.007 22.5C107.34 23.1 107.64 23.7833 107.907 24.55C108.174 25.2833 108.407 26.0667 108.607 26.9C109.474 26.8333 110.59 26.6333 111.957 26.3C113.024 26.0667 113.874 25.9167 114.507 25.85C115.174 25.75 115.74 25.7 116.207 25.7C118.007 25.7 119.424 26.3833 120.457 27.75C121.49 29.0833 122.007 30.9 122.007 33.2V41.25C122.007 43.0833 122.24 44.4 122.707 45.2C123.207 46 123.99 46.4 125.057 46.4C125.524 46.4 125.874 46.6 126.107 47C126.374 47.4 126.507 47.9333 126.507 48.6C126.507 49.1333 126.357 49.6167 126.057 50.05C125.79 50.4833 125.34 50.7 124.707 50.7C119.874 50.7 117.457 47.7333 117.457 41.8V34.05C117.457 32.55 117.29 31.5 116.957 30.9C116.624 30.3 116.024 30 115.157 30C114.857 30 114.524 30.0333 114.157 30.1C113.79 30.1667 113.14 30.3 112.207 30.5C110.907 30.7667 109.89 30.95 109.157 31.05C109.19 31.65 109.207 32.25 109.207 32.85C109.207 35.7833 108.924 38.8 108.357 41.9C107.79 44.9667 106.957 47.7167 105.857 50.15ZM124.698 50.7C124.264 50.7 123.914 50.5 123.648 50.1C123.381 49.7 123.248 49.1833 123.248 48.55C123.248 47.1167 123.848 46.4 125.048 46.4C126.014 46.4 126.998 46.25 127.998 45.95C128.998 45.6167 130.164 45.0667 131.498 44.3C130.198 42.0333 129.548 39.3667 129.548 36.3C129.548 34.2333 129.931 32.4167 130.698 30.85C131.464 29.25 132.531 28 133.898 27.1C135.264 26.1667 136.814 25.7 138.548 25.7C140.014 25.7 141.314 26.05 142.448 26.75C143.581 27.4167 144.464 28.35 145.098 29.55C145.731 30.75 146.048 32.1333 146.048 33.7C146.048 35.8333 145.414 37.7833 144.148 39.55C142.914 41.3167 140.814 43.2333 137.848 45.3C138.914 46.0667 140.348 46.45 142.148 46.45C142.614 46.45 142.981 46.65 143.248 47.05C143.514 47.45 143.648 47.9833 143.648 48.65C143.648 49.2833 143.498 49.7833 143.198 50.15C142.898 50.5167 142.464 50.7 141.898 50.7C140.298 50.7 138.798 50.4333 137.398 49.9C135.998 49.3667 134.831 48.6333 133.898 47.7C130.698 49.7 127.631 50.7 124.698 50.7ZM133.898 35.9C133.898 38.5333 134.364 40.6333 135.298 42.2C137.464 40.7 139.064 39.2333 140.098 37.8C141.164 36.3667 141.698 35 141.698 33.7C141.698 32.5 141.398 31.5667 140.798 30.9C140.231 30.2 139.431 29.85 138.398 29.85C137.098 29.85 136.014 30.4333 135.148 31.6C134.314 32.7667 133.898 34.2 133.898 35.9ZM141.917 50.7C141.45 50.7 141.083 50.5 140.817 50.1C140.517 49.7 140.367 49.1833 140.367 48.55C140.367 47.8833 140.533 47.3667 140.867 47C141.2 46.6333 141.633 46.45 142.167 46.45C144.267 46.45 146.183 45.8667 147.917 44.7C149.65 43.5333 151.05 41.95 152.117 39.95C152.05 39.4167 152.017 38.8667 152.017 38.3C152.017 35.8333 152.483 33.6667 153.417 31.8C154.35 29.9 155.633 28.4167 157.267 27.35C158.933 26.25 160.833 25.7 162.967 25.7C164.567 25.7 166.017 26.0167 167.317 26.65C168.65 27.25 169.733 28.1333 170.567 29.3C170.167 30.6667 169.2 31.65 167.667 32.25C166.567 30.75 165.05 30 163.117 30C161.183 30 159.617 30.7333 158.417 32.2C157.25 33.6333 156.667 35.5833 156.667 38.05C156.667 40.5833 157.4 42.6167 158.867 44.15C160.367 45.6833 162.483 46.45 165.217 46.45C165.65 46.45 166 46.6667 166.267 47.1C166.567 47.5 166.717 48.0167 166.717 48.65C166.717 49.2833 166.55 49.7833 166.217 50.15C165.917 50.5167 165.483 50.7 164.917 50.7C162.383 50.7 160.15 50.2167 158.217 49.25C156.317 48.25 154.833 46.8667 153.767 45.1C152.367 46.9 150.65 48.2833 148.617 49.25C146.583 50.2167 144.35 50.7 141.917 50.7ZM165.064 50.7C164.564 50.7 164.18 50.5 163.914 50.1C163.614 49.7 163.464 49.1833 163.464 48.55C163.464 47.8833 163.63 47.3667 163.964 47C164.297 46.6333 164.73 46.45 165.264 46.45C167.63 46.45 169.73 45.7833 171.564 44.45C173.43 43.0833 174.897 41.2167 175.964 38.85C177.03 36.4833 177.564 33.7833 177.564 30.75V26.4C177.864 26.3 178.214 26.2167 178.614 26.15C179.014 26.0833 179.43 26.05 179.864 26.05C180.63 26.05 181.38 26.1667 182.114 26.4V40.8C182.114 42.5667 182.38 43.95 182.914 44.95C183.48 45.9167 184.414 46.4 185.714 46.4C186.28 46.4 186.664 46.6333 186.864 47.1C187.064 47.5667 187.164 48.0667 187.164 48.6C187.164 49.1333 187.014 49.6167 186.714 50.05C186.447 50.4833 185.997 50.7 185.364 50.7C181.23 50.7 178.83 48.3667 178.164 43.7C176.697 45.9 174.83 47.6167 172.564 48.85C170.33 50.0833 167.83 50.7 165.064 50.7ZM179.914 19.2C178.98 19.2 178.18 18.8667 177.514 18.2C176.847 17.5333 176.514 16.7333 176.514 15.8C176.514 14.8 176.83 13.9833 177.464 13.35C178.13 12.7167 178.947 12.4 179.914 12.4C180.914 12.4 181.73 12.7167 182.364 13.35C182.997 13.9833 183.314 14.8 183.314 15.8C183.314 16.7667 182.98 17.5833 182.314 18.25C181.68 18.8833 180.88 19.2 179.914 19.2ZM185.492 50.7C184.959 50.7 184.559 50.4667 184.292 50C184.026 49.5667 183.892 49.0833 183.892 48.55C183.892 47.9833 184.042 47.4833 184.342 47.05C184.642 46.6167 185.126 46.4 185.792 46.4C186.926 46.4 187.959 45.9 188.892 44.9C189.859 43.8667 190.726 42.55 191.492 40.95C192.292 39.35 193.009 37.65 193.642 35.85C194.176 34.3167 194.759 32.7167 195.392 31.05C196.026 29.3833 196.559 27.75 196.992 26.15C197.659 25.9833 198.442 25.9167 199.342 25.95C200.242 25.9833 200.992 26.1333 201.592 26.4L201.892 29.85C203.692 27.0833 206.092 25.7 209.092 25.7C211.559 25.7 213.509 26.5667 214.942 28.3C216.376 30 217.092 32.3667 217.092 35.4V41.25C217.092 43.0833 217.326 44.4 217.792 45.2C218.292 46 219.076 46.4 220.142 46.4C220.609 46.4 220.959 46.6 221.192 47C221.459 47.4 221.592 47.9333 221.592 48.6C221.592 49.1333 221.442 49.6167 221.142 50.05C220.876 50.4833 220.426 50.7 219.792 50.7C214.959 50.7 212.542 47.7333 212.542 41.8V35.4C212.542 31.8 211.226 30 208.592 30C207.426 30 206.359 30.45 205.392 31.35C204.426 32.25 203.659 33.45 203.092 34.95C202.559 36.4167 202.292 38.0667 202.292 39.9V68.4C201.959 68.5 201.592 68.5833 201.192 68.65C200.792 68.7167 200.409 68.75 200.042 68.75C199.242 68.75 198.476 68.6333 197.742 68.4V36.65L197.542 37.2C196.609 39.8667 195.609 42.2167 194.542 44.25C193.509 46.2833 192.276 47.8667 190.842 49C189.409 50.1333 187.626 50.7 185.492 50.7ZM219.815 50.7C219.382 50.7 219.032 50.5 218.765 50.1C218.498 49.7 218.365 49.1833 218.365 48.55C218.365 47.1167 218.965 46.4 220.165 46.4C221.132 46.4 222.115 46.25 223.115 45.95C224.115 45.6167 225.282 45.0667 226.615 44.3C225.315 42.0333 224.665 39.3667 224.665 36.3C224.665 34.2333 225.048 32.4167 225.815 30.85C226.582 29.25 227.648 28 229.015 27.1C230.382 26.1667 231.932 25.7 233.665 25.7C235.132 25.7 236.432 26.05 237.565 26.75C238.698 27.4167 239.582 28.35 240.215 29.55C240.848 30.75 241.165 32.1333 241.165 33.7C241.165 35.8333 240.532 37.7833 239.265 39.55C238.032 41.3167 235.932 43.2333 232.965 45.3C234.032 46.0667 235.465 46.45 237.265 46.45C238.232 46.45 239.198 46.3167 240.165 46.05C241.132 45.7833 242.065 45.4167 242.965 44.95C243.465 45.3167 243.832 45.8667 244.065 46.6C244.332 47.3 244.465 47.9833 244.465 48.65C243.365 49.2833 242.198 49.7833 240.965 50.15C239.732 50.5167 238.432 50.7 237.065 50.7H237.015C235.415 50.7 233.915 50.4333 232.515 49.9C231.115 49.3667 229.948 48.6333 229.015 47.7C225.815 49.7 222.748 50.7 219.815 50.7ZM229.015 35.9C229.015 38.5333 229.482 40.6333 230.415 42.2C232.582 40.7 234.182 39.2333 235.215 37.8C236.282 36.3667 236.815 35 236.815 33.7C236.815 32.5 236.515 31.5667 235.915 30.9C235.348 30.2 234.548 29.85 233.515 29.85C232.215 29.85 231.132 30.4333 230.265 31.6C229.432 32.7667 229.015 34.2 229.015 35.9ZM262.257 50.4C260.824 49.5667 259.891 48.3 259.457 46.6C260.524 45.8667 261.641 44.95 262.807 43.85C263.974 42.7167 264.991 41.6 265.857 40.5C265.391 38.1 265.157 34.85 265.157 30.75V16.85C265.157 14.0833 265.241 11.85 265.407 10.15C265.607 8.45 265.924 7.03333 266.357 5.9C266.991 4.23333 267.907 2.95 269.107 2.05C270.307 1.15 271.724 0.699997 273.357 0.699997C275.624 0.699997 277.441 1.81666 278.807 4.05C280.174 6.25 280.857 9.21666 280.857 12.95C280.857 15.85 280.574 18.7167 280.007 21.55C279.474 24.35 278.741 27.0333 277.807 29.6C276.874 32.1667 275.807 34.5167 274.607 36.65C273.407 38.7833 272.157 40.6167 270.857 42.15C270.924 42.3167 271.007 42.4833 271.107 42.65C271.807 43.8833 272.624 44.8 273.557 45.4C274.524 45.9667 275.707 46.25 277.107 46.25C278.607 46.25 279.924 45.8333 281.057 45C282.191 44.1667 283.074 43.0167 283.707 41.55C284.341 40.05 284.657 38.3333 284.657 36.4C284.657 35.7 284.607 35 284.507 34.3C282.407 32.9667 281.024 31.7833 280.357 30.75C280.591 30.0833 280.957 29.45 281.457 28.85C281.991 28.2167 282.574 27.7167 283.207 27.35C283.841 26.95 284.441 26.75 285.007 26.75C285.774 26.75 286.474 27.1667 287.107 28C287.741 28.8 288.241 29.8833 288.607 31.25C289.007 32.5833 289.207 34.0667 289.207 35.7C289.207 38.7 288.707 41.3167 287.707 43.55C286.741 45.75 285.341 47.4667 283.507 48.7C281.707 49.9 279.574 50.5 277.107 50.5C272.674 50.5 269.491 48.8333 267.557 45.5C266.891 46.2667 266.124 47.0667 265.257 47.9C264.391 48.7333 263.391 49.5667 262.257 50.4ZM269.357 29.75C269.357 32.5833 269.441 34.9 269.607 36.7C270.907 34.7333 272.091 32.45 273.157 29.85C274.224 27.2167 275.057 24.45 275.657 21.55C276.291 18.6167 276.607 15.7333 276.607 12.9C276.607 7.53333 275.441 4.85 273.107 4.85C271.741 4.85 270.757 5.76666 270.157 7.6C269.624 9.23333 269.357 12.1167 269.357 16.25V29.75ZM307.286 50.7C305.02 50.7 302.986 50.1667 301.186 49.1C299.42 48 298.02 46.5 296.986 44.6C295.986 42.7 295.486 40.55 295.486 38.15C295.486 36.3833 295.786 34.7167 296.386 33.15C293.22 33.8833 289.82 34.25 286.186 34.25C285.686 34.25 285.286 34.05 284.986 33.65C284.686 33.2167 284.536 32.6833 284.536 32.05C284.536 30.6833 285.086 30 286.186 30C291.786 30 296.92 29.05 301.586 27.15C303.32 26.1833 305.22 25.7 307.286 25.7C309.52 25.7 311.52 26.25 313.286 27.35C315.053 28.4167 316.436 29.8833 317.436 31.75C318.47 33.6167 318.986 35.75 318.986 38.15C318.986 40.55 318.47 42.7 317.436 44.6C316.436 46.5 315.053 48 313.286 49.1C311.553 50.1667 309.553 50.7 307.286 50.7ZM307.236 46.4C309.37 46.4 311.07 45.65 312.336 44.15C313.636 42.65 314.286 40.65 314.286 38.15C314.286 36.9167 314.103 35.7833 313.736 34.75C311.736 34.6833 309.92 34.2833 308.286 33.55C306.686 32.8167 305.42 31.8167 304.486 30.55C303.153 31.1167 302.103 32.0833 301.336 33.45C300.57 34.7833 300.186 36.3833 300.186 38.25C300.186 40.6833 300.82 42.65 302.086 44.15C303.386 45.65 305.103 46.4 307.236 46.4ZM336.437 50.7C334.17 50.7 332.137 50.1667 330.337 49.1C328.57 48 327.17 46.5 326.137 44.6C325.137 42.7 324.637 40.55 324.637 38.15C324.637 36.3833 324.937 34.7167 325.537 33.15C322.37 33.8833 318.97 34.25 315.337 34.25C314.837 34.25 314.437 34.05 314.137 33.65C313.837 33.2167 313.687 32.6833 313.687 32.05C313.687 30.6833 314.237 30 315.337 30C320.937 30 326.07 29.05 330.737 27.15C332.47 26.1833 334.37 25.7 336.437 25.7C338.67 25.7 340.67 26.25 342.437 27.35C344.203 28.4167 345.587 29.8833 346.587 31.75C347.62 33.6167 348.137 35.75 348.137 38.15C348.137 40.55 347.62 42.7 346.587 44.6C345.587 46.5 344.203 48 342.437 49.1C340.703 50.1667 338.703 50.7 336.437 50.7ZM336.387 46.4C338.52 46.4 340.22 45.65 341.487 44.15C342.787 42.65 343.437 40.65 343.437 38.15C343.437 36.9167 343.253 35.7833 342.887 34.75C340.887 34.6833 339.07 34.2833 337.437 33.55C335.837 32.8167 334.57 31.8167 333.637 30.55C332.303 31.1167 331.253 32.0833 330.487 33.45C329.72 34.7833 329.337 36.3833 329.337 38.25C329.337 40.6833 329.97 42.65 331.237 44.15C332.537 45.65 334.253 46.4 336.387 46.4ZM358.337 50C358.004 50.1 357.637 50.1833 357.237 50.25C356.837 50.3167 356.454 50.35 356.087 50.35C355.32 50.35 354.537 50.2333 353.737 50V33.75C352.537 34.15 351.287 34.4667 349.987 34.7C348.654 34.9 347.454 35 346.387 35C345.22 35 344.37 34.85 343.837 34.55C343.304 34.25 343.037 33.6667 343.037 32.8C343.037 32.2 343.154 31.7667 343.387 31.5C343.62 31.2 343.887 31.05 344.187 31.05H345.537C346.87 31.05 348.22 30.9167 349.587 30.65C350.954 30.3833 352.337 29.9667 353.737 29.4V11.05C353.737 7.71666 354.437 5.15 355.837 3.35C357.27 1.55 359.337 0.666664 362.037 0.699997C364.504 0.73333 366.42 1.66666 367.787 3.5C369.187 5.33333 369.887 7.71666 369.887 10.65C369.887 13.55 369.437 16.3167 368.537 18.95C367.637 21.55 366.47 23.8833 365.037 25.95C365.704 25.7833 366.404 25.7 367.137 25.7C369.304 25.7 371.037 26.35 372.337 27.65C373.637 28.95 374.287 30.6667 374.287 32.8C374.287 34.5667 373.654 36.1167 372.387 37.45C371.154 38.7833 369.487 39.7833 367.387 40.45C368.12 40.9167 368.77 41.4833 369.337 42.15L370.837 43.9C371.637 44.8667 372.37 45.5667 373.037 46C373.704 46.4 374.587 46.7167 375.687 46.95C375.92 47.5833 375.954 48.2833 375.787 49.05C375.62 49.7833 375.32 50.3333 374.887 50.7C373.787 50.7 372.754 50.45 371.787 49.95C370.854 49.4167 369.82 48.5833 368.687 47.45L366.537 45.25C365.604 44.3167 364.804 43.6167 364.137 43.15C363.504 42.65 362.754 42.3167 361.887 42.15C361.054 41.95 359.887 41.85 358.387 41.85C358.354 42.3833 358.337 42.9167 358.337 43.45V50ZM358.187 11V27.35C360.487 25.35 362.27 22.9167 363.537 20.05C364.804 17.15 365.437 14 365.437 10.6C365.437 8.73333 365.12 7.31666 364.487 6.35C363.887 5.35 363.004 4.85 361.837 4.85C359.404 4.85 358.187 6.9 358.187 11ZM366.337 29.65C364.57 29.65 363.02 30.4333 361.687 32C360.387 33.5667 359.454 35.6333 358.887 38.2C359.454 38.2667 360.104 38.3 360.837 38.3C362.57 38.3 364.12 38.0667 365.487 37.6C366.854 37.1333 367.92 36.5 368.687 35.7C369.487 34.9 369.887 34 369.887 33C369.887 32 369.554 31.2 368.887 30.6C368.254 29.9667 367.404 29.65 366.337 29.65Z" fill="#2B2E4A"/>
</svg>
