<svg id="Capa_1" enable-background="new 0 0 510.744 510.744" viewBox="0 0 510.744 510.744" xmlns="http://www.w3.org/2000/svg"><g><g clip-rule="evenodd" fill-rule="evenodd"><path d="m189.69 76.345c76.889 5.246 305.818-28.3 310.734 89.633-.001 24.841-12.954 46.751-32.328 59.106v189.878c0 10.954-8.817 19.918-19.592 19.918h-257.082z" fill="#d46b5c"/><path d="m190.422 76.613c55.058 0 178.535 7.936 178.535 89.367 0 24.839-12.952 46.749-32.327 59.104l.001 132.399-135.906 77.397h-138.384c-10.775 0-19.592-8.963-19.592-19.918v-189.878c-19.375-12.355-32.327-34.264-32.327-59.104 0-30.875 25.896-89.635 179.268-89.635z" fill="#fde0be"/><path d="m336.632 357.483v57.48c0 10.95-8.82 19.92-19.59 19.92h-254.7c-10.78 0-19.59-8.97-19.59-19.92v-189.88c-50.263-35.146-45.953-107.481 38.38-134.5-60.878 160.197 92.739 320.75 255.5 266.9z" fill="#f7b073"/></g><g><path d="m434.503 81.108c-72.659-23.01-172.658-12.485-244.814-14.765-200.161-2.257-221.961 110.643-156.94 163.994v184.624c0 16.497 13.275 29.919 29.592 29.919 86.393-.002 302.498.002 386.162 0 16.317 0 29.592-13.421 29.592-29.919v-184.624c51.865-40.586 45.192-122.922-43.592-149.229zm-113.348 5.237c50.463-.846 171.871 9.385 169.267 79.636.001 20.666-10.355 39.609-27.702 50.671-2.881 1.836-4.624 5.016-4.624 8.432v189.878c0 5.469-4.303 9.919-9.592 9.919h-131.465-254.698c-5.289 0-9.592-4.449-9.592-9.919v-189.879c0-3.415-1.743-6.595-4.624-8.432-17.347-11.062-27.703-30.004-27.703-50.672 4.065-63.203 89.979-79.261 167.706-79.633z" fill="#052a75"/><g><path d="m209.649 179.809c-5.525.004-10.007-4.475-10.007-10 .527-13.265 19.477-13.26 20.004 0 0 5.523-4.475 10-9.997 10z" fill="#fff"/></g><g><path d="m115.534 281.394c-5.525.005-10.008-4.474-10.008-10 .526-13.265 19.477-13.26 20.004 0 0 5.523-4.474 10-9.996 10z" fill="#fff"/></g><g><path d="m248.491 267.949c-5.525.004-10.008-4.474-10.008-10 .527-13.266 19.477-13.26 20.004 0 0 5.523-4.474 10-9.996 10z" fill="#fff"/></g><g><path d="m202.179 365.052c-5.525.004-10.007-4.475-10.007-10 .526-13.265 19.477-13.26 20.003 0 0 5.523-4.473 10-9.996 10z" fill="#fff"/></g></g></g><g/><g/><g/><g/><g/><g/><g/><g/><g/><g/><g/><g/><g/><g/><g/></svg>