<svg id="Capa_1" enable-background="new 0 0 510.013 510.013" viewBox="0 0 510.013 510.013" xmlns="http://www.w3.org/2000/svg"><g><g><g><path d="m10.032 365.69 15.033 62.976c3.894 16.309 20.797 29.652 37.563 29.652h331.765c16.767 0 33.67-13.343 37.563-29.651l15.034-62.977z" fill="#fff"/></g><g><path d="m327.609 142.302c-3.928-16.3-20.86-29.637-37.627-29.637h-122.947c-16.767 0-33.698 13.336-37.627 29.637l-53.83 223.388h305.865z" fill="#fdcb50"/></g><g><path d="m221.412 112.666h-54.377c-16.767 0-33.698 13.336-37.627 29.637l-53.83 223.387h81.552c7.235-89.435 29.505-174.618 64.282-253.024z" fill="#fd8f01"/></g><g><path d="m154.538 429.659c0-21.539.885-42.87 2.592-63.969h-147.098l15.034 62.976c3.893 16.309 20.797 29.652 37.563 29.652h92.433c-.343-9.512-.524-19.064-.524-28.659z" fill="#d2dcfd"/></g><g><path d="m115.419 200.363c4.016-1.431 7.855-3.234 11.478-5.367 21.326-12.563 47.324-12.028 67.742 0 20.909 12.315 46.879 12.289 67.743 0 21.326-12.563 47.324-12.028 67.743 0 3.621 2.133 7.46 3.936 11.475 5.367v-.001l-13.991-58.059c-3.928-16.3-20.86-29.637-37.627-29.637h-122.947c-16.767 0-33.698 13.336-37.627 29.637l-13.99 58.056z" fill="#d46b5c"/></g><g><path d="m190.975 192.994c8.703-27.463 18.879-54.27 30.437-80.328h-54.377c-16.767 0-33.698 13.336-37.627 29.637l-13.99 58.056.001.004c4.016-1.431 7.855-3.234 11.478-5.367 20.07-11.824 44.277-12.043 64.078-2.002z" fill="#b55348"/></g><g><path d="m258.997 51.696c-16.836 0-30.485 13.649-30.485 30.485 0-16.836-13.649-30.485-30.485-30.485h-30.485v30.485c0 16.836 13.649 30.485 30.485 30.485h60.97c16.836 0 30.485-13.649 30.485-30.485v-30.485z" fill="#91b706"/></g><g><path d="m491.103 213.146c-11.904-11.905-31.207-11.905-43.112 0l-83.248 83.249 16.699 69.295c.356 0-5.011 5.24 109.66-109.431 11.906-11.906 11.906-31.208.001-43.113z" fill="#93b2f4"/></g></g><path d="m429.669 331.851c15.891-15.897 37.932-37.947 68.506-68.521 15.785-15.786 15.785-41.47 0-57.255-7.647-7.646-17.812-11.858-28.627-11.858-10.814 0-20.98 4.211-28.627 11.857l-70.634 70.635-32.955-136.75c-4.74-19.673-23.427-35.332-43.535-37.12 3.607-6.052 5.686-13.116 5.686-20.659v-30.484c0-5.523-4.478-10-10-10h-30.484c-12.15 0-23.058 5.387-30.485 13.89-7.427-8.502-18.335-13.89-30.485-13.89h-30.485c-5.523 0-10 4.477-10 10v30.485c0 7.543 2.08 14.607 5.686 20.659-20.109 1.784-38.8 17.445-43.542 37.12l-51.987 215.73h-57.669c-6.244-.156-11.355 6.259-9.726 12.322 0 0 15.033 62.976 15.033 62.976 4.998 20.933 25.769 37.329 47.29 37.329h331.765c21.521 0 42.292-16.396 47.29-37.329 0 0 15.034-62.976 15.034-62.976 1.587-6.058-3.441-12.484-9.727-12.322h-41.156c5.79-5.788 13.503-13.504 23.834-23.839zm25.394-111.634c7.623-7.944 21.346-7.948 28.969.001 7.987 7.987 7.987 20.983 0 28.97-42.741 42.746-66.535 66.555-96.998 97.018l-11.255-46.704zm-196.065-158.521h20.484v20.485c0 11.295-9.189 20.485-20.484 20.485h-20.485v-20.485c-.001-11.295 9.189-20.485 20.485-20.485zm-81.455 0h20.485c11.296 0 20.485 9.189 20.485 20.485v20.485h-20.485c-11.295 0-20.485-9.189-20.485-20.485zm-38.413 82.949c2.822-11.709 15.861-21.98 27.905-21.98h122.947c12.044 0 25.084 10.271 27.905 21.98l50.859 211.044h-280.472zm283.101 281.699c-2.795 11.705-15.803 21.973-27.837 21.973h-331.765c-12.034 0-25.042-10.268-27.837-21.974l-12.092-50.653h357.898c.617.06 1.225.06 1.826 0h51.9z" fill="#052a75"/></g><g/><g/><g/><g/><g/><g/><g/><g/><g/><g/><g/><g/><g/><g/><g/></svg>