<svg id="Capa_1" enable-background="new 0 0 510 510" viewBox="0 0 510 510" xmlns="http://www.w3.org/2000/svg"><g><g><path d="m320.68 194.02c9.67-10.787 15.552-25.04 15.552-40.667 0-33.658-27.285-60.944-60.944-60.944-24.511 0-45.642 14.47-55.317 35.333l-.007.019c26.458 10.375 45.202 36.118 45.202 66.256" fill="#bc9af4"/><path d="m194.004 122.855c-39.301 0-71.162 31.86-71.162 71.162h142.324c0-39.302-31.861-71.162-71.162-71.162z" fill="#fd6050"/><path d="m152.895 135.324c-.43-.126.445-1.825.445-2.303 0-22.459-18.206-40.664-40.664-40.664s-40.664 18.206-40.664 40.664c0 .478.124.921.14 1.394-17.581 4.485-30.638 20.292-30.638 39.27 0 7.444 2.147 14.33 5.64 20.332h75.688c0-24.668 10.988-45.926 30.053-58.693z" fill="#91b706"/><path d="m242.288 102.113-6.267-17.218c-15.362-42.207-62.032-63.969-104.239-48.607l-19.106 6.954 19.736 54.227c12.48 6.943 20.928 20.258 20.928 35.553 0 .478-.124.921-.14 1.394.436.111.833.31 1.263.436 11.31-7.573 24.908-11.996 39.542-11.996 8.997 0 17.596 1.686 25.519 4.734 5.16-9.722 13.925-19.772 22.764-25.477z" fill="#b1d952"/><path d="m320.682 194.017h66.476c44.916 0 81.328-36.412 81.328-81.328v-20.332h-71.162c-27.721 0-52.203 13.87-66.884 35.047l-.003.001c3.711 7.874 5.795 16.665 5.795 25.947-.001 15.627-5.881 29.879-15.55 40.665z" fill="#b1d952"/><path d="m10 194.017v68.808c0 69.268 41.28 131.871 104.948 159.157 22.674 9.718 37.376 32.013 37.376 56.682h205.353c0-24.669 14.702-46.965 37.376-56.682 63.667-27.286 104.947-89.889 104.947-159.157v-68.808z" fill="#fff"/><path d="m10 255.013h490v-60.996h-490s-1.327 62.323 0 60.996z" fill="#93b2f4"/><path d="m234.591 421.982c-83.341-27.286-137.377-89.889-137.377-159.157v-7.812c-.033.025-.064.02-.095 0h-87.119v7.812c0 69.268 33.083 125.617 104.948 159.157l14.369 8.647c11.468 8.753 23.977 25.255 21.747 48.035h45.238 87.214c0-24.669-19.244-46.964-48.925-56.682z" fill="#d2dcfd"/></g><path d="m500 184.017h-55.876c20.93-16.75 34.361-42.498 34.361-71.327v-20.332c0-5.522-4.478-10-10-10h-71.162c-24.972 0-48.637 10.236-65.717 27.923-12.977-16.928-33.389-27.871-56.318-27.871-9.602 0-18.928 1.97-27.496 5.588l-2.374-6.521c-8.343-22.924-25.114-41.226-47.224-51.535-22.108-10.309-46.909-11.392-69.832-3.05l-19.106 6.953c-2.492.907-4.522 2.768-5.642 5.171-1.121 2.403-1.241 5.154-.335 7.646l13.045 35.842c-1.206-.086-2.42-.146-3.647-.146-25.969 0-47.437 19.637-50.332 44.843-18.478 7.84-30.83 25.997-30.83 46.484 0 3.499.383 6.947 1.115 10.332h-22.63c-5.523 0-10 4.477-10 10v68.809c0 73.367 43.573 139.447 111.009 168.349 19.022 8.152 31.314 26.793 31.314 47.49 0 5.522 4.478 10 10 10h205.354c5.522 0 10-4.478 10-10 0-20.697 12.292-39.338 31.315-47.491 67.435-28.9 111.008-94.981 111.008-168.349v-68.809c0-5.522-4.478-9.999-10-9.999zm-102.677-81.659h61.162v10.332c0 39.33-31.998 71.327-71.328 71.327h-.369c6.499-8.52 10.369-19.146 10.369-30.664 0-5.522-4.478-10-10-10s-10 4.478-10 10c0 16.908-13.756 30.664-30.663 30.664h-7.235c4.551-9.489 6.973-19.944 6.973-30.664 0-8.612-1.546-16.868-4.369-24.511 13.499-16.671 33.855-26.484 55.46-26.484zm-71.092 50.995c0 11.128-3.624 21.86-10.268 30.664h-41.436c-3.206-25.957-18.704-48.145-40.484-60.554 9.48-13.026 24.8-21.054 41.244-21.054 28.091 0 50.944 22.854 50.944 50.944zm-132.227-20.497c30.32 0 55.559 22.177 60.345 51.161h-120.689c4.786-28.985 30.024-51.161 60.344-51.161zm-68.51-83.637 9.708-3.534c36.96-13.449 77.971 5.673 91.422 42.631l3.716 10.208c-5.891 4.817-11.031 10.591-15.157 17.153-6.756-1.829-13.852-2.821-21.178-2.821-11.541 0-22.517 2.437-32.467 6.798-3.276-11.96-10.829-22.166-20.912-28.862zm-73.979 124.466c0-13.944 9.503-26.108 23.11-29.58 4.548-1.16 7.677-5.328 7.521-10.02-.019-.589-.077-1.097-.131-1.498.232-16.709 13.897-30.229 30.661-30.229 4.903 0 9.538 1.164 13.652 3.22.81.636 1.709 1.144 2.668 1.504 8.005 5.055 13.52 13.705 14.254 23.667-16.067 12.915-27.119 31.803-29.77 53.268h-60.042c-1.269-3.362-1.923-6.819-1.923-10.332zm438.485 30.332v40.996h-470v-40.996zm-98.886 208.774c-23.282 9.977-39.295 31.277-42.741 55.873h-186.746c-3.447-24.593-19.46-45.896-42.74-55.874-59.4-25.457-98.011-83.298-98.866-147.777h469.959c-.856 64.478-39.467 122.321-98.866 147.778z" fill="#1c2e72"/></g><g/><g/><g/><g/><g/><g/><g/><g/><g/><g/><g/><g/><g/><g/><g/></svg>