<svg id="Layer_1" enable-background="new 0 0 512 512" viewBox="0 0 512 512" xmlns="http://www.w3.org/2000/svg"><g><g><g><g><g><circle cx="256" cy="256" fill="#fff" r="246"/></g></g><g><path d="m379.762 439.717c-141.009 0-255.319-114.31-255.319-255.319 0-62.257 22.283-119.31 59.308-163.617-100.605 30.864-173.751 124.499-173.751 235.219 0 135.862 110.138 246 246 246 64.827 0 123.797-25.076 167.74-66.056-14.287 2.48-28.982 3.773-43.978 3.773z" fill="#d2dcfd"/></g></g><g><g><g><circle cx="256" cy="256" fill="#bc9af4" r="154.362"/></g></g><g><path d="m316.218 371.552c-85.252 0-154.362-69.11-154.362-154.362 0-41.478 16.36-79.135 42.979-106.871-60.104 21.11-103.197 78.363-103.197 145.681 0 85.252 69.11 154.362 154.362 154.362 24.292 0 47.274-5.612 67.72-15.609 16.396-8.018 10.432-23.201-7.502-23.201z" fill="#6864f7"/></g></g><g><path d="m178.501 407.388c-15.6 0-28.247-12.647-28.247-28.247v-81.379h56.494v81.379c-.001 15.6-12.647 28.247-28.247 28.247z" fill="#27a2cc"/></g><g><g><path d="m227.761 297.762h-77.508v-193.15h10.662c36.918 0 66.846 29.928 66.846 66.846z" fill="#fff"/></g><g><path d="m183.945 184.398c0-24.432 4.622-47.784 13.037-69.231-10.405-6.681-22.784-10.555-36.067-10.555h-10.662v193.15h71.3c-23.621-31.62-37.608-70.859-37.608-113.364z" fill="#d2dcfd"/></g></g><g><path d="m316.218 407.388c-15.6 0-28.247-12.647-28.247-28.247v-112.568h56.494v112.568c0 15.6-12.646 28.247-28.247 28.247z" fill="#67ccd1"/></g></g><g fill="#052a75"><path d="m437.019 74.98c-48.352-48.351-112.639-74.98-181.019-74.98s-132.667 26.629-181.019 74.98c-48.353 48.353-74.981 112.64-74.981 181.02s26.628 132.667 74.981 181.02c48.352 48.351 112.639 74.98 181.019 74.98s132.667-26.629 181.019-74.98c48.353-48.353 74.981-112.64 74.981-181.02s-26.628-132.667-74.981-181.02zm-181.019 417.02c-130.131 0-236-105.869-236-236s105.869-236 236-236 236 105.869 236 236-105.869 236-236 236z"/><path d="m160.915 94.612h-10.662c-5.523 0-10 4.478-10 10v274.528c0 21.09 17.158 38.247 38.247 38.247s38.247-17.157 38.247-38.247v-71.378h11.014c5.523 0 10-4.478 10-10v-126.304c0-42.373-34.473-76.846-76.846-76.846zm35.833 284.529c0 10.062-8.186 18.247-18.247 18.247s-18.247-8.186-18.247-18.247v-71.378h36.494zm21.013-91.378h-57.508v-173.15h.662c31.345 0 56.846 25.501 56.846 56.846z"/><path d="m361.747 95.342c-5.523 0-10 4.478-10 10v82.709c0 10.554-8.586 19.14-19.14 19.14h-6.388v-101.849c0-5.522-4.477-10-10-10s-10 4.478-10 10v101.848h-6.388c-10.554 0-19.14-8.586-19.14-19.14v-82.709c0-5.522-4.477-10-10-10s-10 4.478-10 10v82.709c0 21.582 17.558 39.14 39.14 39.14h6.388v29.383h-18.247c-5.523 0-10 4.478-10 10v112.567c0 21.09 17.158 38.247 38.247 38.247s38.247-17.157 38.247-38.247v-112.567c0-5.522-4.477-10-10-10h-18.247v-29.383h6.388c21.582 0 39.14-17.558 39.14-39.14v-82.709c0-5.522-4.477-9.999-10-9.999zm-27.282 283.799c0 10.062-8.186 18.247-18.247 18.247s-18.247-8.186-18.247-18.247v-102.568h36.494z"/></g></g><g/><g/><g/><g/><g/><g/><g/><g/><g/><g/><g/><g/><g/><g/><g/></svg>