<svg id="Layer_1" enable-background="new 0 0 512 512" viewBox="0 0 512 512" xmlns="http://www.w3.org/2000/svg"><g><g><path d="m494.726 494.674c-9.694 9.691-25.407 9.691-35.101 0l-57.456-57.437c-9.698-9.695-9.698-25.418 0-35.113 9.694-9.691 25.407-9.691 35.101 0l57.456 57.437c9.698 9.696 9.698 25.418 0 35.113z" fill="#bc9af4"/><ellipse cx="218.448" cy="218.465" fill="#f7b073" rx="208.448" ry="208.39"/><path d="m170.886 311.237c-76.788-76.767-89.191-193.526-37.209-283.212-22.715 10.1-43.994 24.461-62.624 43.086-81.404 81.381-81.404 213.326 0 294.708 76.56 76.538 197.856 81.092 279.74 13.664-64.619 3.863-130.533-18.885-179.907-68.246z" fill="#d46b5c"/><path d="m339.796 183.456c4.095-8.563 6.301-18.202 6.075-28.379-.736-33.183-27.804-60.308-60.984-61.11-3.059-.074-6.069.072-9.017.423-14.853 1.767-29.414-4.151-39.359-15.324-12.146-13.646-30.178-21.937-50.112-20.89-30.111 1.582-57.141 28.304-59.043 58.397-.18 2.842-.169 5.646.019 8.402 1.129 16.479-6.314 32.445-20.227 41.346-17.788 11.379-29.435 31.511-28.869 54.321.771 31.025 24.534 56.69 54.76 60.477.02.003.042.005.066.007 9.902 1.024 16.806 10.455 14.419 20.119-1.443 5.845-2.065 12.013-1.735 18.376 1.683 32.486 28.566 58.508 61.086 59.207 21.432.46 40.479-9.862 52.09-25.916 8.8-12.167 22.601-19.811 37.616-19.927.471-.004.944-.012 1.417-.027 32.871-.98 59.654-27.783 60.61-60.656.452-15.527-4.757-29.826-13.714-40.988-10.895-13.577-12.61-32.154-5.098-47.858z" fill="#fff"/><path d="m229.762 300.874c-.376-7.259.333-14.297 1.98-20.966 2.723-11.026-5.154-21.787-16.451-22.955-.027-.003-.052-.006-.075-.008-34.486-4.32-61.598-33.602-62.478-69-.646-26.025 12.643-48.994 32.935-61.976 15.874-10.156 24.366-28.371 23.078-47.172-.215-3.144-.227-6.343-.022-9.586.167-2.65.506-5.278 1.004-7.871-7.273-2.447-15.143-3.594-23.335-3.164-30.111 1.582-57.141 28.304-59.043 58.397-.18 2.842-.169 5.646.019 8.402 1.129 16.479-6.314 32.445-20.227 41.346-17.787 11.379-29.434 31.511-28.867 54.321.771 31.025 24.534 56.69 54.76 60.477.021.003.042.005.066.008 9.901 1.024 16.806 10.455 14.419 20.119-1.443 5.845-2.065 12.013-1.735 18.376 1.683 32.486 28.566 58.508 61.086 59.207 20.936.45 39.596-9.39 51.273-24.812-16.316-12.329-27.264-31.476-28.387-53.143z" fill="#d2dcfd"/><g fill="#fdcb50"><circle cx="209.823" cy="159.749" r="40.962"/><circle cx="222.982" cy="279.217" r="35.165"/></g></g><g fill="#052a75"><path d="m501.797 452.489-57.456-57.438c-11.122-11.118-27.957-13.128-41.144-6.03l-22.918-22.911c-.151-.151-.306-.295-.464-.434 36.885-40.323 57.081-92.215 57.081-147.211 0-58.335-22.723-113.178-63.982-154.426s-96.117-63.964-154.467-63.964c-58.349 0-113.205 22.716-154.465 63.964s-63.982 96.091-63.982 154.426 22.723 113.178 63.982 154.426 96.116 63.964 154.465 63.964c55.011 0 106.917-20.191 147.252-57.067.14.159.286.315.438.468l22.909 22.902c-2.711 5.018-4.151 10.66-4.151 16.524 0 9.304 3.623 18.051 10.203 24.629l57.457 57.438c6.787 6.785 15.704 10.178 24.62 10.178s17.833-3.393 24.62-10.178c.001 0 .001 0 .001-.001 6.58-6.578 10.203-15.324 10.203-24.628.001-9.307-3.622-18.053-10.202-24.631zm-423.674-93.743c-37.481-37.471-58.123-87.29-58.123-140.281s20.642-102.811 58.123-140.281c38.688-38.678 89.506-58.016 140.324-58.016 50.819 0 101.638 19.338 140.325 58.016 37.481 37.471 58.123 87.29 58.123 140.281s-20.642 102.811-58.123 140.281c-77.375 77.355-203.274 77.356-280.649 0zm409.534 128.857c-5.78 5.776-15.184 5.776-20.962 0l-57.456-57.438c-2.802-2.8-4.344-6.523-4.344-10.484s1.542-7.685 4.344-10.484c2.89-2.889 6.685-4.333 10.48-4.333s7.591 1.444 10.48 4.333l57.456 57.438c2.802 2.8 4.344 6.523 4.344 10.484.001 3.959-1.541 7.683-4.342 10.484z"/><path d="m352.693 225.055c-8.391-10.455-9.876-24.741-3.876-37.283 4.934-10.315 7.306-21.39 7.05-32.916-.413-18.632-7.958-36.226-21.244-49.539-13.287-13.315-30.864-20.896-49.494-21.346-3.49-.088-7.002.079-10.441.489-11.317 1.346-22.797-3.154-30.707-12.042-14.742-16.562-35.913-25.399-58.107-24.229-17.015.895-33.567 8.488-46.606 21.384-13.043 12.897-20.817 29.365-21.893 46.369-.204 3.234-.196 6.503.023 9.717.9 13.138-5.093 25.491-15.64 32.238-21.598 13.816-34.112 37.364-33.476 62.992.884 35.567 28.188 65.727 63.515 70.151v-.001c.046.006.092.012.135.017.049.006.097.012.146.017 1.934.199 3.678 1.216 4.783 2.789.604.859 1.532 2.65.956 4.985-1.709 6.92-2.387 14.083-2.014 21.291 1.954 37.704 33.079 67.875 70.858 68.687.522.011 1.044.017 1.564.017 23.265 0 45.168-11.163 58.843-30.07 7.087-9.797 18.148-15.699 29.597-15.787.539-.005 1.08-.015 1.632-.031 38.31-1.143 69.193-32.049 70.309-70.361.5-17.247-5.151-34.13-15.913-47.538zm-4.08 46.956c-.808 27.743-23.171 50.124-50.902 50.951-.405.012-.81.02-1.206.022-17.779.138-34.842 9.135-45.642 24.066-10.132 14.009-26.539 22.17-43.772 21.778-27.36-.587-49.9-22.43-51.315-49.725-.271-5.246.219-10.448 1.457-15.462 1.81-7.327.348-15.085-4.012-21.284-4.417-6.282-11.334-10.349-18.987-11.169-25.563-3.228-45.318-25.057-45.957-50.796-.461-18.571 8.607-35.636 24.259-45.648 16.707-10.688 26.215-30.021 24.815-50.452-.16-2.341-.165-4.726-.016-7.089 1.568-24.819 24.741-47.735 49.588-49.042 16.082-.844 31.438 5.554 42.118 17.553 12.254 13.769 30.201 20.723 48.009 18.604 2.498-.297 5.05-.418 7.596-.354 27.633.668 50.614 23.696 51.228 51.334.185 8.361-1.53 16.383-5.099 23.842-9.346 19.539-6.924 41.929 6.321 58.433 7.791 9.706 11.881 21.937 11.517 34.438z"/><path d="m260.784 159.749c0-28.101-22.861-50.963-50.962-50.963-28.1 0-50.961 22.862-50.961 50.963s22.861 50.963 50.961 50.963c28.101 0 50.962-22.862 50.962-50.963zm-81.923 0c0-17.073 13.889-30.963 30.961-30.963s30.962 13.89 30.962 30.963-13.89 30.963-30.962 30.963-30.961-13.89-30.961-30.963z"/><path d="m222.982 234.052c-24.904 0-45.165 20.261-45.165 45.165s20.261 45.166 45.165 45.166c24.903 0 45.164-20.262 45.164-45.166s-20.26-45.165-45.164-45.165zm0 70.331c-13.876 0-25.165-11.289-25.165-25.166 0-13.876 11.289-25.165 25.165-25.165s25.164 11.289 25.164 25.165c0 13.877-11.288 25.166-25.164 25.166z"/></g></g><g/><g/><g/><g/><g/><g/><g/><g/><g/><g/><g/><g/><g/><g/><g/></svg>