<svg id="Capa_1" enable-background="new 0 0 510 510" viewBox="0 0 510 510" xmlns="http://www.w3.org/2000/svg"><g><g clip-rule="evenodd" fill-rule="evenodd"><path d="m65 260c-11 0-20 9-20 20v140h370v-140c0-11-9.003-20-20-20-110 0-220 0-330 0z" fill="#fde0be"/><path d="m244.999 280v140h60v-45h110v-95c0-11-9.003-20-20-20h-130c-10.997 0-20 9.003-20 20z" fill="#fde0be"/><path d="m269 420h36v-45h110v-36h-110c-19.873 0-36 16.127-36 36z" fill="#f7b073"/><path d="m415 375h-110v45h160v-45z" fill="#fde0be"/><path d="m465 420h-160-60.001-199.999-35v45h490v-45z" fill="#d46b5c"/><path d="m118.952 330c0-27.589 2.517-47.421 7.302-70-15.768 0-45.487 0-61.255 0-11 0-20 9-20 20v140h86.142c-7.943-28.644-12.189-62.411-12.189-90z" fill="#f7b073"/><path d="m240.752 260 65.225-65.225c7.195-7.195 7.195-18.968-.001-26.163l80.964-80.964c9.723-9.723 9.723-25.632 0-35.355s-25.633-9.723-35.355 0l-207.706 207.707-28.113 28.113c21.552 21.551 54.197 25.665 79.987 12.346v-20.459c0-10.999 9.001-20 20-20z" fill="#fff"/></g><path d="m500 410h-25v-35c0-5.523-4.477-10-10-10h-40v-85c0-16.542-13.458-30-30-30h-130.105l48.154-48.154c8.625-8.625 10.556-21.449 5.79-31.955l75.172-75.173c6.591-6.591 10.222-15.38 10.222-24.749s-3.63-18.158-10.221-24.749c-6.591-6.59-15.38-10.22-24.748-10.22-9.368 0-18.158 3.63-24.749 10.221l-204.779 204.779h-74.736c-16.542 0-30 13.458-30 30v130h-25c-5.523 0-10 4.477-10 10v45c0 5.523 4.477 10 10 10h490c5.523 0 10-4.477 10-10v-45c0-5.523-4.477-10-10-10zm-45 0h-140v-25h140zm-50-130v85h-100c-5.523 0-10 4.477-10 10v35h-40v-130c0-5.514 4.486-10 10-10h130c5.514 0 10 4.486 10 10zm-46.343-220.637c5.848-5.849 15.364-5.848 21.213 0 2.814 2.813 4.363 6.58 4.363 10.606s-1.55 7.793-4.364 10.606l-80.963 80.964c-3.905 3.905-3.905 10.237 0 14.142 3.314 3.315 3.315 8.708 0 12.021l-62.295 62.298h-20.858c-16.542 0-30 13.458-30 30v14.022c-18.274 7.151-39.27 4.571-55.216-6.538zm-303.657 220.637c0-5.514 4.486-10 10-10h54.736l-11.042 11.042c-1.875 1.875-2.929 4.419-2.929 7.071s1.054 5.196 2.929 7.071c11.982 11.982 27.208 19.615 44.029 22.073 3.759.549 7.553.821 11.346.821 12.586 0 25.149-2.99 36.271-8.733 3.324-1.716 5.412-5.145 5.412-8.885v-20.46c0-5.514 4.486-10 10-10h20.961c-1.109 3.129-1.714 6.495-1.714 10v130h-179.999zm435 175h-470v-25h470z" fill="#052a75"/></g><g/><g/><g/><g/><g/><g/><g/><g/><g/><g/><g/><g/><g/><g/><g/></svg>