<svg id="Capa_1" enable-background="new 0 0 510.058 510.058" viewBox="0 0 510.058 510.058" xmlns="http://www.w3.org/2000/svg"><g><g><path d="m123.125 346.099c0 73.019 59.32 132.183 132.398 131.93 72.915-.252 131.464-60.447 131.464-133.363 0-30.499 12.365-59.568 34.054-80.697l-39.386-9.679-20.488-83.373-44.826-11.016c-12.183 21.27-34.878 35.746-61.035 35.836-34.375.119-63.073-24.263-69.634-56.675l-14.826 60.332-83.373 20.488-8.616 35.063 4.432 3.755c25.267 21.411 39.836 54.282 39.836 87.399z" fill="#fff"/><path d="m181.441 282.323c0-37.559 10.64-72.628 29.055-102.378-12.516-10.154-21.504-24.486-24.823-40.881l-14.826 60.332-83.373 20.488-8.616 35.063 4.432 3.755c25.267 21.408 39.836 54.28 39.836 87.396 0 73.019 59.32 132.183 132.398 131.93 19.628-.068 38.212-4.486 54.896-12.32-75.194-26.99-128.979-98.902-128.979-183.385z" fill="#d2dcfd"/><circle cx="255.056" cy="346.518" fill="#fdcb50" r="64.196"/><g fill="#fde0be"><path d="m263.905 98.19-72.57 17.834-20.488 83.372-83.373 20.488-17.834 72.57c-57.932-57.932-83.97-170.945-30.325-224.59 53.645-53.644 166.658-27.607 224.59 30.326z"/><path d="m259.961 77.86 17.834 72.57 83.372 20.488 20.488 83.373 72.57 17.834c57.933-57.933 61.409-148.384 7.764-202.029-53.643-53.645-144.095-50.169-202.028 7.764z"/></g></g><path d="m469.062 63.024c-27.938-27.937-65.889-42.456-106.862-40.88-40.684 1.563-79.503 18.839-109.31 48.646-.867.867-1.541 1.875-2.031 2.959-28.122-21.119-63.618-36.485-99.211-42.427-49.698-8.298-92.104 2.169-119.405 29.471-27.301 27.302-37.767 69.708-29.47 119.405 7.47 44.747 29.824 89.355 59.796 119.328 1.901 1.901 4.456 2.93 7.072 2.929.896 0 1.801-.121 2.688-.368 3.477-.971 6.161-3.74 7.022-7.246l5.205-21.179c18.039 19.059 28.569 45.409 28.569 72.437 0 38.004 14.826 73.708 41.746 100.535 26.8 26.708 62.611 41.396 100.434 41.396v-.001c77.984-.27 141.683-64.582 141.683-143.362 0-25.687 9.865-50.782 27.216-69.623l27.637 6.792c.791.194 1.591.289 2.386.289 2.62 0 5.173-1.031 7.072-2.929 29.806-29.806 47.082-68.626 48.645-109.31 1.573-40.973-12.945-78.924-40.882-106.862zm-211.489 47.019 10.511 42.773c.888 3.615 3.71 6.437 7.325 7.325l24.108 5.925c-11.351 12.303-27.383 19.615-44.245 19.673-.07 0-.14 0-.21 0-28.115 0-52.616-19.43-59.119-46.563l3.658-14.887zm-179.81 107.455-13.308 54.153c-20.916-26.152-36.215-60.364-41.955-94.746-7.204-43.149 1.279-79.362 23.886-101.969 17.355-17.355 42.729-26.387 73.105-26.387 9.191 0 18.841.827 28.864 2.5 34.382 5.74 68.594 21.04 94.746 41.956l-54.153 13.308c-3.614.888-6.436 3.71-7.324 7.325l-19.043 77.492-77.493 19.044c-3.615.888-6.437 3.71-7.325 7.324zm299.224 127.169c0 67.791-54.722 123.131-121.716 123.363-32.492 0-63.261-12.62-86.283-35.562-23.127-23.046-35.863-53.719-35.863-86.368 0-36.36-16.1-71.755-43.08-94.772l5.695-23.176 77.493-19.044c3.614-.888 6.436-3.71 7.324-7.325l7.714-31.391c14.714 21.531 39.465 35.348 66.79 35.348h.28c26.035-.09 50.558-13.118 65.579-34.413l31.981 7.859 19.043 77.493c.888 3.615 3.71 6.437 7.325 7.325l23.303 5.727c-16.401 21.33-25.585 47.856-25.585 74.936zm112.971-175.548c-1.301 33.843-15.077 66.275-38.932 91.922l-61.104-15.016-19.043-77.493c-.888-3.615-3.71-6.437-7.325-7.325l-77.493-19.043-15.015-61.103c54.032-50.211 135.429-52.34 183.873-3.895 23.953 23.954 36.397 56.609 35.039 91.953z" fill="#052a75"/></g><g/><g/><g/><g/><g/><g/><g/><g/><g/><g/><g/><g/><g/><g/><g/></svg>