<svg id="Capa_1" enable-background="new 0 0 510 510" viewBox="0 0 510 510" xmlns="http://www.w3.org/2000/svg"><g><g><path d="m307.379 122.809c0-46.338 22.673-87.791 57.714-112.81-61.01 1.223-110.093 51.055-110.093 112.358l26.189 32.64z" fill="#b1d952"/><path d="m202.621 122.809c0-46.338-22.673-87.791-57.714-112.81 61.01 1.223 110.093 51.055 110.093 112.358l-26.189 32.64z" fill="#b1d952"/><path d="m186.567 456c-73.215 0-132.567-59.353-132.567-132.567 0-66.945 44.263-123.553 105.119-142.153 25.781-7.88 43.502-31.513 43.502-58.471l26.189 32.187 26.19-32.187 26.189 32.187 26.189-32.187c0 26.958 17.722 50.591 43.502 58.471 60.857 18.6 105.12 75.207 105.12 142.153 0 73.214-59.352 132.567-132.567 132.567z" fill="#fd7da0"/><path d="m156.175 255.127c0-27.205 4.476-53.364 12.729-77.782-3.107 1.566-6.373 2.893-9.786 3.935-60.856 18.6-105.118 75.207-105.118 142.153 0 73.215 59.352 132.567 132.566 132.567h76.012c-64.219-43.684-106.403-117.35-106.403-200.873z" fill="#db4b86"/></g><g><path d="m466 323.433c0-34.657-10.977-67.582-31.744-95.214-20.079-26.717-48.651-46.783-80.452-56.503-21.787-6.659-36.425-26.313-36.425-48.907 0-41.612 20.009-80.742 53.524-104.671 3.568-2.548 5.061-7.123 3.682-11.284-1.379-4.162-5.285-6.919-9.692-6.853-32.167.645-62.304 13.657-84.862 36.642-10.706 10.909-19.128 23.486-25.031 37.133-5.903-13.646-14.325-26.224-25.031-37.133-22.558-22.984-52.695-35.997-84.862-36.642-4.413-.076-8.313 2.69-9.692 6.853-1.379 4.161.113 8.736 3.682 11.284 33.515 23.929 53.524 63.059 53.524 104.671 0 22.594-14.638 42.248-36.425 48.907-31.801 9.72-60.373 29.786-80.452 56.503-20.767 27.632-31.744 60.557-31.744 95.214 0 77.848 62.721 141.311 140.282 142.537-7.565 9.294-12.11 21.139-12.11 34.029 0 5.522 4.477 10 10 10s10-4.478 10-10c0-16.894 12.386-30.943 28.552-33.558v33.559c0 5.522 4.477 10 10 10s10-4.478 10-10v-34h28.552v34c0 5.522 4.477 10 10 10s10-4.478 10-10v-33.558c16.166 2.615 28.552 16.665 28.552 33.558 0 5.522 4.477 10 10 10s10-4.478 10-10c0-12.89-4.546-24.735-12.11-34.029 77.561-1.227 140.282-64.69 140.282-142.538zm-171.696-272.781c11.072-11.281 24.326-19.69 38.823-24.824-22.018 25.731-34.866 58.709-35.702 93.37l-16.236 19.954-16.14-19.837c.752-25.851 11.07-50.133 29.255-68.663zm-117.432-24.824c14.497 5.134 27.751 13.543 38.823 24.824 18.186 18.531 28.504 42.812 29.255 68.663l-16.14 19.837-16.236-19.954c-.836-34.661-13.683-67.64-35.702-93.37zm146.561 420.172h-136.866c-67.584 0-122.567-54.984-122.567-122.567 0-30.289 9.59-59.058 27.732-83.198 17.556-23.358 42.525-40.899 70.309-49.392 22.426-6.854 39.397-23.652 46.678-44.694l12.334 15.159c1.899 2.334 4.748 3.688 7.757 3.688s5.858-1.354 7.757-3.688l18.433-22.654 18.433 22.654c1.899 2.334 4.748 3.688 7.757 3.688s5.858-1.354 7.757-3.688l12.334-15.159c7.281 21.042 24.252 37.84 46.678 44.694 27.784 8.492 52.753 26.033 70.309 49.392 18.142 24.141 27.732 52.909 27.732 83.198 0 67.583-54.984 122.567-122.567 122.567z" fill="#052a75"/><g><path d="m161.146 415.927c-3.055 0-6.069-1.395-8.032-4.034-20.889-28.091-32.393-63.996-32.393-101.101 0-31.856 8.291-62.47 23.979-88.532 2.848-4.732 8.992-6.26 13.725-3.41 4.731 2.848 6.259 8.992 3.411 13.725-13.813 22.948-21.114 49.995-21.114 78.218 0 32.835 10.101 64.502 28.442 89.167 3.296 4.432 2.375 10.696-2.057 13.991-1.794 1.333-3.887 1.976-5.961 1.976z" fill="#bc3c85"/></g><g><path d="m349.107 415.927c-2.075 0-4.167-.644-5.959-1.977-4.432-3.295-5.353-9.56-2.057-13.991 18.341-24.665 28.442-56.332 28.442-89.167 0-28.223-7.301-55.27-21.114-78.218-2.848-4.732-1.321-10.877 3.411-13.725s10.877-1.321 13.725 3.41c15.687 26.062 23.979 56.676 23.979 88.532 0 37.104-11.504 73.01-32.393 101.101-1.964 2.641-4.98 4.035-8.034 4.035z" fill="#bc3c85"/></g><g><path d="m221.573 415.929c-4.425 0-8.47-2.959-9.659-7.438-7.217-27.192-11.192-61.89-11.192-97.699 0-30.734 2.86-60.291 8.271-85.476 1.16-5.399 6.479-8.831 11.877-7.677 5.399 1.16 8.836 6.479 7.676 11.878-5.119 23.825-7.825 51.93-7.825 81.274 0 34.127 3.737 67.002 10.523 92.568 1.417 5.338-1.762 10.814-7.1 12.23-.859.231-1.722.34-2.571.34z" fill="#bc3c85"/></g><g><path d="m288.68 415.929c-.849 0-1.712-.109-2.572-.338-5.338-1.416-8.517-6.893-7.1-12.23 6.786-25.566 10.523-58.441 10.523-92.568 0-29.345-2.706-57.449-7.825-81.274-1.16-5.399 2.277-10.718 7.676-11.878 5.403-1.152 10.718 2.278 11.877 7.677 5.411 25.185 8.271 54.741 8.271 85.476 0 35.81-3.975 70.507-11.192 97.699-1.187 4.477-5.233 7.436-9.658 7.436z" fill="#bc3c85"/></g></g></g><g/><g/><g/><g/><g/><g/><g/><g/><g/><g/><g/><g/><g/><g/><g/></svg>