<svg id="Capa_1" enable-background="new 0 0 512 512" viewBox="0 0 512 512" xmlns="http://www.w3.org/2000/svg"><g><g><g><g><g><path d="m287.778 68.323 77.058-14.845-19.653 45.518c-9.506 22.018-31.193 36.276-55.175 36.276h-68.371c-23.982 0-45.669-14.258-55.175-36.276l-19.653-45.519 77.058 14.845h63.911z" fill="#91b706"/></g></g><g><g><path d="m219.277 157.011v-65.979c0-23.448 8.102-46.176 22.934-64.337l13.611-16.666 13.611 16.666c14.832 18.161 22.934 40.889 22.934 64.337v65.978h-73.09z" fill="#b1d952"/></g></g></g><g><g><path d="m306.116 125.848c-15.037-8.893-32.07-13.911-50.116-13.911s-35.08 5.017-50.116 13.911c-71.859-14.504-195.884-13.05-195.884 169.827 0 81.164 48.722 161.587 129.155 197.062 39.459 17.403 77.436 6.732 98.89-2.667 11.442-5.013 24.467-5.013 35.909 0 21.455 9.399 59.431 20.07 98.89 2.667 80.434-35.475 129.156-115.898 129.156-197.062 0-182.877-124.025-184.331-195.884-169.827z" fill="#fd7da0"/></g></g><g><g><path d="m137.118 284.731c0-60.319 19.121-116.171 51.631-161.829-72.786-10.298-178.749 3.735-178.749 172.773 0 81.164 48.722 161.587 129.155 197.062 35.178 15.515 69.166 8.716 91.331.399-57.288-51.153-93.368-125.56-93.368-208.405z" fill="#db4b86"/></g></g></g><g><path d="m456.267 141.683c-31.043-25.626-70.132-32.325-105.708-31.204 1.404-2.415 2.681-4.917 3.804-7.519l19.653-45.519c1.469-3.402.937-7.337-1.385-10.227-2.321-2.889-6.047-4.258-9.688-3.557l-66.126 12.739c-4.256-13.038-10.874-25.295-19.64-36.028l-13.61-16.665c-1.899-2.325-4.742-3.674-7.745-3.674s-5.846 1.349-7.745 3.674l-13.611 16.667c-8.765 10.733-15.383 22.989-19.64 36.028l-66.126-12.74c-3.638-.703-7.367.667-9.688 3.557-2.321 2.889-2.854 6.825-1.385 10.227l19.653 45.519c1.112 2.575 2.382 5.08 3.795 7.501-35.478-1.068-74.292 5.676-105.183 31.089-37.086 30.511-55.892 82.366-55.892 154.124 0 42.462 12.447 84.325 35.997 121.061 24.224 37.789 58.5 67.233 99.123 85.15 43.738 19.291 85.774 6.615 106.938-2.657 8.859-3.882 19.023-3.882 27.883 0 13.063 5.723 34.073 12.743 58.533 12.742 15.167-.001 31.665-2.701 48.405-10.085 40.623-17.917 74.899-47.361 99.123-85.15 23.551-36.736 35.998-78.599 35.998-121.061 0-71.653-18.751-123.463-55.733-153.992zm-108.108-74.809-12.157 28.158c-2.97 6.878-7.327 12.867-12.953 17.8-.001.001-.002.002-.003.003-5.286.725-10.402 1.574-15.299 2.504-1.784-.977-5.422-2.781-5.422-2.781l.043-21.526c0-5.08-.364-10.135-1.052-15.134zm-98.203-33.853 5.866-7.183 5.866 7.183c13.335 16.328 20.679 36.93 20.679 58.011v14.244c-8.489-2.181-17.311-3.34-26.367-3.34-9.182 0-18.125 1.188-26.723 3.428v-14.332c0-21.081 7.344-41.683 20.679-58.011zm-74.313 62.011-12.157-28.158 46.844 9.024c-.688 4.999-1.052 10.054-1.052 15.134l.013 21.878s-3.364 1.514-5.035 2.428c-5.022-.953-10.267-1.82-15.682-2.556-5.539-4.871-10.003-10.97-12.931-17.75zm283.523 310.911c-22.097 34.47-53.342 61.319-90.356 77.645-34.899 15.391-68.664 7.039-90.843-2.677-13.959-6.116-29.973-6.116-43.934 0-22.179 9.717-55.941 18.07-90.843 2.677-37.015-16.326-68.26-43.175-90.356-77.645-21.48-33.509-32.834-71.639-32.834-110.268 0-65.491 16.352-112.149 48.6-138.679 32.287-26.563 75.925-29.292 112.464-25.002-27.608 25.232-45.33 64.056-45.33 107.532 0 5.523 4.478 10 10 10s10-4.477 10-10c0-64.839 44.979-117.589 100.267-117.589s100.267 52.75 100.267 117.589c0 5.523 4.478 10 10 10s10-4.477 10-10c0-43.476-17.722-82.3-45.33-107.532 36.474-4.277 80.261-1.58 112.598 25.113 32.157 26.548 48.464 73.169 48.464 138.568 0 38.629-11.354 76.759-32.834 110.268z" fill="#052a75"/></g></g><g/><g/><g/><g/><g/><g/><g/><g/><g/><g/><g/><g/><g/><g/><g/></svg>